<?xml version="1.0" standalone="no"?>
<!DOCTYPE svg PUBLIC "-//W3C//DTD SVG 20010904//EN"
 "http://www.w3.org/TR/2001/REC-SVG-20010904/DTD/svg10.dtd">
<svg version="1.0" xmlns="http://www.w3.org/2000/svg"
 width="368.000000pt" height="304.000000pt" viewBox="0 0 368.000000 304.000000"
 preserveAspectRatio="xMidYMid meet">
<metadata>
Created by potrace 1.16, written by Peter Selinger 2001-2019
</metadata>
<g transform="translate(0.000000,304.000000) scale(0.100000,-0.100000)"
fill="#000000" stroke="none">
<path d="M1235 2854 c-40 -20 -74 -53 -91 -87 -10 -19 -42 -210 -44 -264 0 -1
-186 -4 -414 -5 -403 -3 -415 -4 -443 -24 -15 -11 -34 -32 -40 -45 -10 -19
-12 -214 -10 -887 l2 -864 37 -34 38 -34 1145 0 1145 0 0 120 c0 66 -3 120 -7
120 -5 0 -28 -7 -52 -15 -51 -18 -73 -13 -101 22 -45 58 -7 148 62 146 19 0
49 -8 67 -17 l31 -17 0 71 0 70 180 0 c99 0 180 2 180 4 0 2 -9 25 -20 51 -28
64 -26 101 6 130 31 29 71 32 113 10 49 -25 53 -64 16 -142 l-24 -53 124 0
125 0 0 648 c0 696 1 676 -53 716 -28 20 -40 21 -446 24 l-418 3 -15 124 c-18
147 -39 189 -110 224 -43 20 -56 21 -499 21 -392 0 -458 -2 -484 -16z m1875
-594 l0 -100 -330 0 -330 0 0 100 0 100 330 0 330 0 0 -100z m-1195 50 c225
-58 410 -208 510 -415 59 -124 78 -206 79 -340 0 -434 -342 -775 -779 -776
-354 0 -649 222 -750 566 -53 177 -32 393 55 564 100 198 307 359 525 406 95
21 268 19 360 -5z" style="fill:#f47421;fill-opacity:1;fill-rule:nonzero;stroke:none"/>
<path d="M1569 2006 c-297 -104 -412 -455 -236 -718 81 -121 213 -196 363
-205 367 -24 621 352 459 682 -82 170 -239 265 -434 265 -64 0 -103 -6 -152
-24z" style="fill:#f47421;fill-opacity:1;fill-rule:nonzero;stroke:none"/>
<path d="M3044 1016 c-19 -19 -34 -43 -34 -53 0 -10 15 -43 34 -73 19 -30 32
-58 28 -61 -4 -3 -79 -21 -167 -39 -88 -17 -163 -35 -167 -39 -6 -5 3 -64 18
-112 4 -15 -3 -16 -59 -12 -60 5 -65 4 -85 -22 -32 -40 -29 -90 7 -126 36 -35
55 -36 114 -4 26 13 48 21 50 17 3 -4 15 -55 27 -114 15 -73 27 -108 36 -108
35 0 553 112 580 126 38 19 64 62 64 107 0 30 -62 348 -75 384 -2 8 -37 4
-120 -14 -64 -14 -118 -23 -121 -20 -3 2 0 16 6 31 11 30 13 96 4 121 -8 19
-55 45 -85 45 -11 0 -36 -15 -55 -34z" style="fill:#f47421;fill-opacity:1;fill-rule:nonzero;stroke:none"/>
</g>
</svg>
